# xmcd
#
# Track frame offsets: 
#        200
#        16830
#        36620
#        56785
#        79465
#        96685
#        111092
#        127985
#        146977
#        166922
#        182242
#        196832
#        221632
#        236157
#
# Disc length: 3395 seconds
#
# Revision: 3
# Processed by: cddbd v1.5.1PL0 Copyright (c) Steve Scherf et al.
# Submitted via: ExactAudioCopy v0.90b4
#
DISCID=d70d410e
DTITLE=Pat Boyack and The Prowlers - Super Blue and Funky
DYEAR=1997
DGENRE=blues
TTITLE0=For You My Love
TTITLE1=I'll Be The Joker
TTITLE2=Longwallin'
TTITLE3=Why Must I Suffer
TTITLE4=Mexican Vodka
TTITLE5=Louisiana Love Shack
TTITLE6=Can't You See
TTITLE7=Sweet Redemption
TTITLE8=Think (Before You Do)
TTITLE9=Ol' Blondie Swings Again
TTITLE10=The Way You Do
TTITLE11=Righteous Love
TTITLE12=Poppa Stoppa
TTITLE13=Look At Me, Look At You
EXTD=
EXTT0=
EXTT1=
EXTT2=
EXTT3=
EXTT4=
EXTT5=
EXTT6=
EXTT7=
EXTT8=
EXTT9=
EXTT10=
EXTT11=
EXTT12=
EXTT13=
PLAYORDER=
